<svg width="270" height="268" viewBox="0 0 270 268" fill="none" xmlns="http://www.w3.org/2000/svg">
<circle cx="136" cy="134" r="50" fill="#FFDD00"/>
<rect x="131" width="10" height="75" rx="5" fill="#FFDD00"/>
<rect x="40.5355" y="234.569" width="10" height="75" rx="5" transform="rotate(-135 40.5355 234.569)" fill="#FFDD00"/>
<rect x="183.536" y="93.5685" width="10" height="75" rx="5" transform="rotate(-135 183.536 93.5685)" fill="#FFDD00"/>
<rect x="176" y="181.536" width="10" height="75" rx="5" transform="rotate(-45 176 181.536)" fill="#FFDD00"/>
<rect x="37" y="40.5355" width="10" height="75" rx="5" transform="rotate(-45 37 40.5355)" fill="#FFDD00"/>
<rect x="75" y="132" width="10" height="75" rx="5" transform="rotate(90 75 132)" fill="#FFDD00"/>
<rect x="270" y="132" width="10" height="75" rx="5" transform="rotate(90 270 132)" fill="#FFDD00"/>
<rect x="130" y="193" width="10" height="75" rx="5" fill="#FFDD00"/>
</svg>
