<svg width="195" height="159" viewBox="0 0 195 159" fill="none" xmlns="http://www.w3.org/2000/svg">
<path d="M93 0C107.501 0 119.943 8.81921 125.254 21.3867C128.861 19.8502 132.831 19 137 19C153.569 19 167 32.4315 167 49C167 65.5685 153.569 79 137 79H54C53.4103 79 52.8306 78.9562 52.2637 78.874C36.9777 77.4917 25 64.646 25 49C25 32.4315 38.4315 19 55 19C57.2349 19 59.4123 19.2465 61.5078 19.71C67.1834 8.04184 79.1525 0 93 0Z" fill="white"/>
<path d="M138.493 38C126.443 38 116.105 44.5863 111.691 53.9717C108.694 52.824 105.394 52.1895 101.93 52.1895C88.1615 52.1895 77.0001 62.2209 77 74.5947C77 86.2613 86.9219 95.8438 99.5957 96.9014C100.028 96.9654 100.47 97 100.92 97H171.911C172.733 97 173.527 96.8866 174.283 96.6797C186.045 94.8805 195 85.6782 195 74.5947C195 62.2208 183.838 52.1895 170.07 52.1895C168.213 52.1895 166.403 52.3735 164.662 52.7197C159.946 44.0059 150 38.0001 138.493 38Z" fill="#DFDFDF"/>
<path d="M57.4648 48C69.7194 48 80.2326 54.8099 84.7207 64.5137C87.7694 63.3271 91.1246 62.671 94.6475 62.6709C108.649 62.6709 120 73.0418 120 85.835C120 98.0062 109.727 107.984 96.6709 108.926C96.2946 108.972 95.9113 109 95.5225 109H23.6318C22.8294 109 22.0511 108.897 21.3086 108.705C9.22905 106.936 0 97.3708 0 85.835C0.000286547 73.0418 11.3511 62.6709 25.3525 62.6709C27.241 62.6709 29.0809 62.8609 30.8516 63.2188C35.6479 54.2093 45.7628 48 57.4648 48Z" fill="#CCCCCC"/>
<path d="M50.0918 118.795C50.3777 117.915 51.6223 117.915 51.9082 118.795V118.795C52.036 119.189 52.4027 119.455 52.8164 119.455V119.455C53.7414 119.455 54.126 120.639 53.3776 121.182V121.182C53.043 121.426 52.9029 121.857 53.0307 122.25V122.25C53.3166 123.13 52.3097 123.861 51.5613 123.318V123.318C51.2266 123.074 50.7734 123.074 50.4387 123.318V123.318C49.6903 123.861 48.6834 123.13 48.9693 122.25V122.25C49.0971 121.857 48.957 121.426 48.6224 121.182V121.182C47.874 120.639 48.2586 119.455 49.1836 119.455V119.455C49.5973 119.455 49.964 119.189 50.0918 118.795V118.795Z" fill="white"/>
<path d="M87.0918 116.795C87.3777 115.915 88.6223 115.915 88.9082 116.795V116.795C89.036 117.189 89.4027 117.455 89.8164 117.455V117.455C90.7414 117.455 91.126 118.639 90.3776 119.182V119.182C90.043 119.426 89.9029 119.857 90.0307 120.25V120.25C90.3166 121.13 89.3097 121.861 88.5613 121.318V121.318C88.2266 121.074 87.7734 121.074 87.4387 121.318V121.318C86.6903 121.861 85.6834 121.13 85.9693 120.25V120.25C86.0971 119.857 85.957 119.426 85.6224 119.182V119.182C84.874 118.639 85.2586 117.455 86.1836 117.455V117.455C86.5973 117.455 86.964 117.189 87.0918 116.795V116.795Z" fill="white"/>
<path d="M43.0918 145.795C43.3777 144.915 44.6223 144.915 44.9082 145.795V145.795C45.036 146.189 45.4027 146.455 45.8164 146.455V146.455C46.7414 146.455 47.126 147.639 46.3776 148.182V148.182C46.043 148.426 45.9029 148.857 46.0307 149.25V149.25C46.3166 150.13 45.3097 150.861 44.5613 150.318V150.318C44.2266 150.074 43.7734 150.074 43.4387 150.318V150.318C42.6903 150.861 41.6834 150.13 41.9693 149.25V149.25C42.0971 148.857 41.957 148.426 41.6224 148.182V148.182C40.874 147.639 41.2586 146.455 42.1836 146.455V146.455C42.5973 146.455 42.964 146.189 43.0918 145.795V145.795Z" fill="white"/>
<path d="M84.0918 153.795C84.3777 152.915 85.6223 152.915 85.9082 153.795V153.795C86.036 154.189 86.4027 154.455 86.8164 154.455V154.455C87.7414 154.455 88.126 155.639 87.3776 156.182V156.182C87.043 156.426 86.9029 156.857 87.0307 157.25V157.25C87.3166 158.13 86.3097 158.861 85.5613 158.318V158.318C85.2266 158.074 84.7734 158.074 84.4387 158.318V158.318C83.6903 158.861 82.6834 158.13 82.9693 157.25V157.25C83.0971 156.857 82.957 156.426 82.6224 156.182V156.182C81.874 155.639 82.2586 154.455 83.1836 154.455V154.455C83.5973 154.455 83.964 154.189 84.0918 153.795V153.795Z" fill="white"/>
<path d="M124.092 148.795C124.378 147.915 125.622 147.915 125.908 148.795V148.795C126.036 149.189 126.403 149.455 126.816 149.455V149.455C127.741 149.455 128.126 150.639 127.378 151.182V151.182C127.043 151.426 126.903 151.857 127.031 152.25V152.25C127.317 153.13 126.31 153.861 125.561 153.318V153.318C125.227 153.074 124.773 153.074 124.439 153.318V153.318C123.69 153.861 122.683 153.13 122.969 152.25V152.25C123.097 151.857 122.957 151.426 122.622 151.182V151.182C121.874 150.639 122.259 149.455 123.184 149.455V149.455C123.597 149.455 123.964 149.189 124.092 148.795V148.795Z" fill="white"/>
<path d="M69.0918 140.795C69.3777 139.915 70.6223 139.915 70.9082 140.795V140.795C71.036 141.189 71.4027 141.455 71.8164 141.455V141.455C72.7414 141.455 73.126 142.639 72.3776 143.182V143.182C72.043 143.426 71.9029 143.857 72.0307 144.25V144.25C72.3166 145.13 71.3097 145.861 70.5613 145.318V145.318C70.2266 145.074 69.7734 145.074 69.4387 145.318V145.318C68.6903 145.861 67.6834 145.13 67.9693 144.25V144.25C68.0971 143.857 67.957 143.426 67.6224 143.182V143.182C66.874 142.639 67.2586 141.455 68.1836 141.455V141.455C68.5973 141.455 68.964 141.189 69.0918 140.795V140.795Z" fill="white"/>
<path d="M105.092 131.795C105.378 130.915 106.622 130.915 106.908 131.795V131.795C107.036 132.189 107.403 132.455 107.816 132.455V132.455C108.741 132.455 109.126 133.639 108.378 134.182V134.182C108.043 134.426 107.903 134.857 108.031 135.25V135.25C108.317 136.13 107.31 136.861 106.561 136.318V136.318C106.227 136.074 105.773 136.074 105.439 136.318V136.318C104.69 136.861 103.683 136.13 103.969 135.25V135.25C104.097 134.857 103.957 134.426 103.622 134.182V134.182C102.874 133.639 103.259 132.455 104.184 132.455V132.455C104.597 132.455 104.964 132.189 105.092 131.795V131.795Z" fill="white"/>
<path d="M162.092 148.795C162.378 147.915 163.622 147.915 163.908 148.795V148.795C164.036 149.189 164.403 149.455 164.816 149.455V149.455C165.741 149.455 166.126 150.639 165.378 151.182V151.182C165.043 151.426 164.903 151.857 165.031 152.25V152.25C165.317 153.13 164.31 153.861 163.561 153.318V153.318C163.227 153.074 162.773 153.074 162.439 153.318V153.318C161.69 153.861 160.683 153.13 160.969 152.25V152.25C161.097 151.857 160.957 151.426 160.622 151.182V151.182C159.874 150.639 160.259 149.455 161.184 149.455V149.455C161.597 149.455 161.964 149.189 162.092 148.795V148.795Z" fill="white"/>
<path d="M139.092 135.795C139.378 134.915 140.622 134.915 140.908 135.795V135.795C141.036 136.189 141.403 136.455 141.816 136.455V136.455C142.741 136.455 143.126 137.639 142.378 138.182V138.182C142.043 138.426 141.903 138.857 142.031 139.25V139.25C142.317 140.13 141.31 140.861 140.561 140.318V140.318C140.227 140.074 139.773 140.074 139.439 140.318V140.318C138.69 140.861 137.683 140.13 137.969 139.25V139.25C138.097 138.857 137.957 138.426 137.622 138.182V138.182C136.874 137.639 137.259 136.455 138.184 136.455V136.455C138.597 136.455 138.964 136.189 139.092 135.795V135.795Z" fill="white"/>
<path d="M168.092 121.795C168.378 120.915 169.622 120.915 169.908 121.795V121.795C170.036 122.189 170.403 122.455 170.816 122.455V122.455C171.741 122.455 172.126 123.639 171.378 124.182V124.182C171.043 124.426 170.903 124.857 171.031 125.25V125.25C171.317 126.13 170.31 126.861 169.561 126.318V126.318C169.227 126.074 168.773 126.074 168.439 126.318V126.318C167.69 126.861 166.683 126.13 166.969 125.25V125.25C167.097 124.857 166.957 124.426 166.622 124.182V124.182C165.874 123.639 166.259 122.455 167.184 122.455V122.455C167.597 122.455 167.964 122.189 168.092 121.795V121.795Z" fill="white"/>
<path d="M152.092 111.795C152.378 110.915 153.622 110.915 153.908 111.795V111.795C154.036 112.189 154.403 112.455 154.816 112.455V112.455C155.741 112.455 156.126 113.639 155.378 114.182V114.182C155.043 114.426 154.903 114.857 155.031 115.25V115.25C155.317 116.13 154.31 116.861 153.561 116.318V116.318C153.227 116.074 152.773 116.074 152.439 116.318V116.318C151.69 116.861 150.683 116.13 150.969 115.25V115.25C151.097 114.857 150.957 114.426 150.622 114.182V114.182C149.874 113.639 150.259 112.455 151.184 112.455V112.455C151.597 112.455 151.964 112.189 152.092 111.795V111.795Z" fill="white"/>
<path d="M122.092 113.795C122.378 112.915 123.622 112.915 123.908 113.795V113.795C124.036 114.189 124.403 114.455 124.816 114.455V114.455C125.741 114.455 126.126 115.639 125.378 116.182V116.182C125.043 116.426 124.903 116.857 125.031 117.25V117.25C125.317 118.13 124.31 118.861 123.561 118.318V118.318C123.227 118.074 122.773 118.074 122.439 118.318V118.318C121.69 118.861 120.683 118.13 120.969 117.25V117.25C121.097 116.857 120.957 116.426 120.622 116.182V116.182C119.874 115.639 120.259 114.455 121.184 114.455V114.455C121.597 114.455 121.964 114.189 122.092 113.795V113.795Z" fill="white"/>
</svg>
