<svg width="260" height="211" viewBox="0 0 260 211" fill="none" xmlns="http://www.w3.org/2000/svg">
<g filter="url(#filter0_diii_8_44)">
<path d="M65.1934 129.767C98.9484 129.767 126.312 101.728 126.312 67.1396C126.312 32.5511 98.9484 4.5117 65.1934 4.5117C31.4385 4.5117 4.07468 32.5511 4.07468 67.1396C4.07468 101.728 31.4385 129.767 65.1934 129.767Z" fill="#C4C9D2"/>
</g>
<g filter="url(#filter1_i_8_44)">
<path d="M58.5723 41.0445C63.3542 41.0445 67.2308 37.0723 67.2308 32.1722C67.2308 27.2722 63.3542 23.3 58.5723 23.3C53.7903 23.3 49.9138 27.2722 49.9138 32.1722C49.9138 37.0723 53.7903 41.0445 58.5723 41.0445Z" fill="#9DA5B5"/>
</g>
<g filter="url(#filter2_i_8_44)">
<path d="M42.7833 103.673C54.5976 103.673 64.175 93.8588 64.175 81.7528C64.175 69.6468 54.5976 59.833 42.7833 59.833C30.969 59.833 21.3917 69.6468 21.3917 81.7528C21.3917 93.8588 30.969 103.673 42.7833 103.673Z" fill="#9DA5B5"/>
</g>
<g filter="url(#filter3_i_8_44)">
<path d="M95.7529 91.1469C103.066 91.1469 108.995 85.0717 108.995 77.5775C108.995 70.0834 103.066 64.0081 95.7529 64.0081C88.4393 64.0081 82.5105 70.0834 82.5105 77.5775C82.5105 85.0717 88.4393 91.1469 95.7529 91.1469Z" fill="#9DA5B5"/>
</g>
<path d="M158 49.4679C172.501 49.4679 184.943 58.2871 190.254 70.8546C193.861 69.3181 197.831 68.4679 202 68.4679C218.569 68.4679 232 81.8994 232 98.4679C232 115.036 218.569 128.468 202 128.468H119C118.41 128.468 117.831 128.424 117.264 128.342C101.978 126.96 90 114.114 90 98.4679C90 81.8994 103.431 68.4679 120 68.4679C122.235 68.4679 124.412 68.7144 126.508 69.1779C132.183 57.5098 144.153 49.4679 158 49.4679Z" fill="white"/>
<path d="M203.493 87.4679C191.443 87.4679 181.105 94.0542 176.691 103.44C173.694 102.292 170.394 101.657 166.93 101.657C153.162 101.657 142 111.689 142 124.063C142 135.729 151.922 145.312 164.596 146.369C165.028 146.433 165.47 146.468 165.92 146.468H236.911C237.733 146.468 238.527 146.355 239.283 146.148C251.045 144.348 260 135.146 260 124.063C260 111.689 248.838 101.657 235.07 101.657C233.213 101.657 231.403 101.841 229.662 102.188C224.946 93.4738 215 87.468 203.493 87.4679Z" fill="#DFDFDF"/>
<path d="M122.465 97.4679C134.719 97.4679 145.233 104.278 149.721 113.982C152.769 112.795 156.125 112.139 159.647 112.139C173.649 112.139 185 122.51 185 135.303C185 147.474 174.727 157.452 161.671 158.394C161.295 158.44 160.911 158.468 160.522 158.468H88.6318C87.8294 158.468 87.0511 158.365 86.3086 158.173C74.229 156.404 65 146.839 65 135.303C65.0003 122.51 76.3511 112.139 90.3525 112.139C92.241 112.139 94.0809 112.329 95.8516 112.687C100.648 103.677 110.763 97.4679 122.465 97.4679Z" fill="#CCCCCC"/>
<path d="M162.639 168.686L171.716 176.724C172.607 177.512 173.311 178.537 173.715 179.747C174.94 183.413 172.96 187.379 169.293 188.604C165.627 189.829 161.661 187.849 160.436 184.183C160.032 182.973 159.978 181.731 160.217 180.566L160.216 180.566L162.639 168.686Z" fill="#00B2FF"/>
<path d="M132.639 162.686L141.716 170.724C142.607 171.512 143.311 172.537 143.715 173.747C144.94 177.413 142.96 181.379 139.293 182.604C135.627 183.829 131.661 181.849 130.436 178.183C130.032 176.973 129.978 175.731 130.217 174.566L130.216 174.566L132.639 162.686Z" fill="#00B2FF"/>
<path d="M183.639 150.686L192.716 158.724C193.607 159.512 194.311 160.537 194.715 161.747C195.94 165.413 193.96 169.379 190.293 170.604C186.627 171.829 182.661 169.849 181.436 166.183C181.032 164.973 180.978 163.731 181.217 162.566L181.216 162.566L183.639 150.686Z" fill="#00B2FF"/>
<path d="M147.639 188.686L156.716 196.724C157.607 197.512 158.311 198.537 158.715 199.747C159.94 203.413 157.96 207.379 154.293 208.604C150.627 209.829 146.661 207.849 145.436 204.183C145.032 202.973 144.978 201.731 145.217 200.566L145.216 200.566L147.639 188.686Z" fill="#00B2FF"/>
<path d="M186.639 186.686L195.716 194.724C196.607 195.512 197.311 196.537 197.715 197.747C198.94 201.413 196.96 205.379 193.293 206.604C189.627 207.829 185.661 205.849 184.436 202.183C184.032 200.973 183.978 199.731 184.217 198.566L184.216 198.566L186.639 186.686Z" fill="#00B2FF"/>
<path d="M227.686 33.0196C228.361 33.7153 227.751 34.8672 226.796 34.7006L224.818 34.3553C224.391 34.2808 223.965 34.4896 223.762 34.8725L222.823 36.6472C222.369 37.5033 221.085 37.2792 220.949 36.3201L220.666 34.3321C220.605 33.9031 220.275 33.5623 219.848 33.4878L217.87 33.1426C216.915 32.976 216.732 31.6856 217.602 31.2594L219.405 30.376C219.794 30.1854 220.016 29.766 219.955 29.3371L219.672 27.349C219.536 26.3899 220.706 25.8165 221.38 26.5122L222.778 27.9543C223.079 28.2654 223.547 28.347 223.936 28.1564L225.739 27.273C226.609 26.8468 227.516 27.7829 227.063 28.639L226.123 30.4137C225.921 30.7965 225.987 31.2664 226.289 31.5775L227.686 33.0196Z" fill="#FFDD00"/>
<path d="M178.196 6.81487C178.87 7.51054 178.26 8.66244 177.306 8.49588L175.328 8.15059C174.901 8.0761 174.475 8.28489 174.272 8.66776L173.332 10.4425C172.879 11.2986 171.595 11.0745 171.458 10.1154L171.176 8.12731C171.115 7.6984 170.784 7.35758 170.357 7.28309L168.379 6.93781C167.425 6.77125 167.241 5.48084 168.111 5.05467L169.915 4.17125C170.304 3.98066 170.526 3.56123 170.465 3.13233L170.182 1.14424C170.045 0.185178 171.216 -0.388224 171.89 0.307451L173.287 1.74955C173.589 2.06066 174.056 2.14227 174.445 1.95168L176.249 1.06826C177.119 0.642089 178.026 1.57811 177.573 2.43423L176.633 4.20892C176.43 4.59179 176.497 5.06165 176.798 5.37277L178.196 6.81487Z" fill="#FFDD00"/>
<path d="M190.255 46.0142C190.929 46.7099 190.319 47.8618 189.365 47.6952L187.386 47.3499C186.96 47.2754 186.533 47.4842 186.331 47.8671L185.391 49.6418C184.938 50.4979 183.654 50.2738 183.517 49.3147L183.234 47.3266C183.173 46.8977 182.843 46.5569 182.416 46.4824L180.438 46.1371C179.484 45.9706 179.3 44.6802 180.17 44.254L181.973 43.3706C182.362 43.18 182.584 42.7606 182.523 42.3317L182.24 40.3436C182.104 39.3845 183.275 38.8111 183.949 39.5068L185.346 40.9489C185.648 41.26 186.115 41.3416 186.504 41.151L188.308 40.2676C189.177 39.8414 190.085 40.7775 189.631 41.6336L188.692 43.4083C188.489 43.7911 188.556 44.261 188.857 44.5721L190.255 46.0142Z" fill="#FFDD00"/>
<path d="M146.742 32.0269C147.416 32.7226 146.806 33.8745 145.852 33.7079L143.874 33.3626C143.447 33.2881 143.021 33.4969 142.818 33.8798L141.878 35.6545C141.425 36.5106 140.141 36.2865 140.004 35.3274L139.722 33.3393C139.661 32.9104 139.33 32.5696 138.903 32.4951L136.925 32.1498C135.971 31.9833 135.787 30.6929 136.657 30.2667L138.461 29.3833C138.85 29.1927 139.072 28.7732 139.011 28.3443L138.728 26.3563C138.591 25.3972 139.762 24.8238 140.436 25.5195L141.833 26.9616C142.135 27.2727 142.602 27.3543 142.991 27.1637L144.795 26.2803C145.665 25.8541 146.572 26.7901 146.119 27.6462L145.179 29.4209C144.976 29.8038 145.043 30.2737 145.344 30.5848L146.742 32.0269Z" fill="#FFDD00"/>
<defs>
<filter id="filter0_diii_8_44" x="1.65904" y="2.09606" width="127.069" height="132.503" filterUnits="userSpaceOnUse" color-interpolation-filters="sRGB">
<feFlood flood-opacity="0" result="BackgroundImageFix"/>
<feColorMatrix in="SourceAlpha" type="matrix" values="0 0 0 0 0 0 0 0 0 0 0 0 0 0 0 0 0 0 127 0" result="hardAlpha"/>
<feOffset dy="2.41565"/>
<feGaussianBlur stdDeviation="1.20782"/>
<feComposite in2="hardAlpha" operator="out"/>
<feColorMatrix type="matrix" values="0 0 0 0 0 0 0 0 0 0 0 0 0 0 0 0 0 0 0.25 0"/>
<feBlend mode="normal" in2="BackgroundImageFix" result="effect1_dropShadow_8_44"/>
<feBlend mode="normal" in="SourceGraphic" in2="effect1_dropShadow_8_44" result="shape"/>
<feColorMatrix in="SourceAlpha" type="matrix" values="0 0 0 0 0 0 0 0 0 0 0 0 0 0 0 0 0 0 127 0" result="hardAlpha"/>
<feOffset dx="2.41565" dy="4.22738"/>
<feGaussianBlur stdDeviation="2.41565"/>
<feComposite in2="hardAlpha" operator="arithmetic" k2="-1" k3="1"/>
<feColorMatrix type="matrix" values="0 0 0 0 0 0 0 0 0 0 0 0 0 0 0 0 0 0 0.25 0"/>
<feBlend mode="normal" in2="shape" result="effect2_innerShadow_8_44"/>
<feColorMatrix in="SourceAlpha" type="matrix" values="0 0 0 0 0 0 0 0 0 0 0 0 0 0 0 0 0 0 127 0" result="hardAlpha"/>
<feOffset dx="1.81174" dy="2.41565"/>
<feGaussianBlur stdDeviation="1.20782"/>
<feComposite in2="hardAlpha" operator="arithmetic" k2="-1" k3="1"/>
<feColorMatrix type="matrix" values="0 0 0 0 1 0 0 0 0 1 0 0 0 0 1 0 0 0 0.61 0"/>
<feBlend mode="normal" in2="effect2_innerShadow_8_44" result="effect3_innerShadow_8_44"/>
<feColorMatrix in="SourceAlpha" type="matrix" values="0 0 0 0 0 0 0 0 0 0 0 0 0 0 0 0 0 0 127 0" result="hardAlpha"/>
<feOffset dy="-3.01956"/>
<feGaussianBlur stdDeviation="1.20782"/>
<feComposite in2="hardAlpha" operator="arithmetic" k2="-1" k3="1"/>
<feColorMatrix type="matrix" values="0 0 0 0 0.216667 0 0 0 0 0.216667 0 0 0 0 0.216667 0 0 0 1 0"/>
<feBlend mode="normal" in2="effect3_innerShadow_8_44" result="effect4_innerShadow_8_44"/>
</filter>
<filter id="filter1_i_8_44" x="49.9138" y="23.3" width="17.317" height="18.3485" filterUnits="userSpaceOnUse" color-interpolation-filters="sRGB">
<feFlood flood-opacity="0" result="BackgroundImageFix"/>
<feBlend mode="normal" in="SourceGraphic" in2="BackgroundImageFix" result="shape"/>
<feColorMatrix in="SourceAlpha" type="matrix" values="0 0 0 0 0 0 0 0 0 0 0 0 0 0 0 0 0 0 127 0" result="hardAlpha"/>
<feOffset dy="0.603912"/>
<feGaussianBlur stdDeviation="1.20782"/>
<feComposite in2="hardAlpha" operator="arithmetic" k2="-1" k3="1"/>
<feColorMatrix type="matrix" values="0 0 0 0 0 0 0 0 0 0 0 0 0 0 0 0 0 0 0.25 0"/>
<feBlend mode="normal" in2="shape" result="effect1_innerShadow_8_44"/>
</filter>
<filter id="filter2_i_8_44" x="21.3917" y="59.833" width="42.7833" height="44.4436" filterUnits="userSpaceOnUse" color-interpolation-filters="sRGB">
<feFlood flood-opacity="0" result="BackgroundImageFix"/>
<feBlend mode="normal" in="SourceGraphic" in2="BackgroundImageFix" result="shape"/>
<feColorMatrix in="SourceAlpha" type="matrix" values="0 0 0 0 0 0 0 0 0 0 0 0 0 0 0 0 0 0 127 0" result="hardAlpha"/>
<feOffset dy="0.603912"/>
<feGaussianBlur stdDeviation="1.20782"/>
<feComposite in2="hardAlpha" operator="arithmetic" k2="-1" k3="1"/>
<feColorMatrix type="matrix" values="0 0 0 0 0 0 0 0 0 0 0 0 0 0 0 0 0 0 0.25 0"/>
<feBlend mode="normal" in2="shape" result="effect1_innerShadow_8_44"/>
</filter>
<filter id="filter3_i_8_44" x="82.5105" y="64.0081" width="26.4848" height="27.7427" filterUnits="userSpaceOnUse" color-interpolation-filters="sRGB">
<feFlood flood-opacity="0" result="BackgroundImageFix"/>
<feBlend mode="normal" in="SourceGraphic" in2="BackgroundImageFix" result="shape"/>
<feColorMatrix in="SourceAlpha" type="matrix" values="0 0 0 0 0 0 0 0 0 0 0 0 0 0 0 0 0 0 127 0" result="hardAlpha"/>
<feOffset dy="0.603912"/>
<feGaussianBlur stdDeviation="1.20782"/>
<feComposite in2="hardAlpha" operator="arithmetic" k2="-1" k3="1"/>
<feColorMatrix type="matrix" values="0 0 0 0 0 0 0 0 0 0 0 0 0 0 0 0 0 0 0.25 0"/>
<feBlend mode="normal" in2="shape" result="effect1_innerShadow_8_44"/>
</filter>
</defs>
</svg>
