<svg width="188" height="140" viewBox="0 0 188 140" fill="none" xmlns="http://www.w3.org/2000/svg">
<path d="M144.049 24.927C144.348 24.0057 145.652 24.0057 145.951 24.9271L146.572 26.8369C146.705 27.2489 147.089 27.5279 147.523 27.5279H149.531C150.499 27.5279 150.902 28.7675 150.119 29.3369L148.494 30.5172C148.143 30.7719 147.997 31.2232 148.131 31.6353L148.751 33.5451C149.051 34.4664 147.996 35.2325 147.212 34.6631L145.588 33.4828C145.237 33.2281 144.763 33.2281 144.412 33.4828L142.788 34.6631C142.004 35.2325 140.949 34.4664 141.249 33.5451L141.869 31.6353C142.003 31.2232 141.857 30.7719 141.506 30.5172L139.881 29.3369C139.098 28.7675 139.501 27.5279 140.469 27.5279H142.477C142.911 27.5279 143.295 27.2489 143.428 26.8369L144.049 24.927Z" fill="#FFDD00"/>
<path d="M144.049 80.927C144.348 80.0057 145.652 80.0057 145.951 80.9271L146.572 82.8369C146.705 83.2489 147.089 83.5279 147.523 83.5279H149.531C150.499 83.5279 150.902 84.7675 150.119 85.3369L148.494 86.5172C148.143 86.7719 147.997 87.2232 148.131 87.6353L148.751 89.5451C149.051 90.4664 147.996 91.2325 147.212 90.6631L145.588 89.4828C145.237 89.2281 144.763 89.2281 144.412 89.4828L142.788 90.6631C142.004 91.2325 140.949 90.4664 141.249 89.5451L141.869 87.6353C142.003 87.2232 141.857 86.7719 141.506 86.5172L139.881 85.3369C139.098 84.7675 139.501 83.5279 140.469 83.5279H142.477C142.911 83.5279 143.295 83.2489 143.428 82.8369L144.049 80.927Z" fill="#FFDD00"/>
<path d="M173.049 51.927C173.348 51.0057 174.652 51.0057 174.951 51.9271L175.572 53.8369C175.705 54.2489 176.089 54.5279 176.523 54.5279H178.531C179.499 54.5279 179.902 55.7675 179.119 56.3369L177.494 57.5172C177.143 57.7719 176.997 58.2232 177.131 58.6353L177.751 60.5451C178.051 61.4664 176.996 62.2325 176.212 61.6631L174.588 60.4828C174.237 60.2281 173.763 60.2281 173.412 60.4828L171.788 61.6631C171.004 62.2325 169.949 61.4664 170.249 60.5451L170.869 58.6353C171.003 58.2232 170.857 57.7719 170.506 57.5172L168.881 56.3369C168.098 55.7675 168.501 54.5279 169.469 54.5279H171.477C171.911 54.5279 172.295 54.2489 172.428 53.8369L173.049 51.927Z" fill="#FFDD00"/>
<path d="M181.049 96.927C181.348 96.0057 182.652 96.0057 182.951 96.9271L183.572 98.8369C183.705 99.2489 184.089 99.5279 184.523 99.5279H186.531C187.499 99.5279 187.902 100.767 187.119 101.337L185.494 102.517C185.143 102.772 184.997 103.223 185.131 103.635L185.751 105.545C186.051 106.466 184.996 107.233 184.212 106.663L182.588 105.483C182.237 105.228 181.763 105.228 181.412 105.483L179.788 106.663C179.004 107.233 177.949 106.466 178.249 105.545L178.869 103.635C179.003 103.223 178.857 102.772 178.506 102.517L176.881 101.337C176.098 100.767 176.501 99.5279 177.469 99.5279H179.477C179.911 99.5279 180.295 99.2489 180.428 98.8369L181.049 96.927Z" fill="#FFDD00"/>
<g filter="url(#filter0_diii_5_1139)">
<path d="M65.1934 126.3C98.9484 126.3 126.312 98.2601 126.312 63.6716C126.312 29.0832 98.9484 1.04378 65.1934 1.04378C31.4385 1.04378 4.07468 29.0832 4.07468 63.6716C4.07468 98.2601 31.4385 126.3 65.1934 126.3Z" fill="#C4C9D2"/>
</g>
<g filter="url(#filter1_i_5_1139)">
<path d="M58.5723 37.5766C63.3542 37.5766 67.2308 33.6043 67.2308 28.7043C67.2308 23.8043 63.3542 19.832 58.5723 19.832C53.7903 19.832 49.9138 23.8043 49.9138 28.7043C49.9138 33.6043 53.7903 37.5766 58.5723 37.5766Z" fill="#9DA5B5"/>
</g>
<g filter="url(#filter2_i_5_1139)">
<path d="M42.7833 100.205C54.5976 100.205 64.175 90.3909 64.175 78.2849C64.175 66.1789 54.5976 56.365 42.7833 56.365C30.969 56.365 21.3917 66.1789 21.3917 78.2849C21.3917 90.3909 30.969 100.205 42.7833 100.205Z" fill="#9DA5B5"/>
</g>
<g filter="url(#filter3_i_5_1139)">
<path d="M95.7529 87.679C103.066 87.679 108.995 81.6038 108.995 74.1096C108.995 66.6154 103.066 60.5402 95.7529 60.5402C88.4393 60.5402 82.5105 66.6154 82.5105 74.1096C82.5105 81.6038 88.4393 87.679 95.7529 87.679Z" fill="#9DA5B5"/>
</g>
<defs>
<filter id="filter0_diii_5_1139" x="1.65904" y="-1.37186" width="127.069" height="132.503" filterUnits="userSpaceOnUse" color-interpolation-filters="sRGB">
<feFlood flood-opacity="0" result="BackgroundImageFix"/>
<feColorMatrix in="SourceAlpha" type="matrix" values="0 0 0 0 0 0 0 0 0 0 0 0 0 0 0 0 0 0 127 0" result="hardAlpha"/>
<feOffset dy="2.41565"/>
<feGaussianBlur stdDeviation="1.20782"/>
<feComposite in2="hardAlpha" operator="out"/>
<feColorMatrix type="matrix" values="0 0 0 0 0 0 0 0 0 0 0 0 0 0 0 0 0 0 0.25 0"/>
<feBlend mode="normal" in2="BackgroundImageFix" result="effect1_dropShadow_5_1139"/>
<feBlend mode="normal" in="SourceGraphic" in2="effect1_dropShadow_5_1139" result="shape"/>
<feColorMatrix in="SourceAlpha" type="matrix" values="0 0 0 0 0 0 0 0 0 0 0 0 0 0 0 0 0 0 127 0" result="hardAlpha"/>
<feOffset dx="2.41565" dy="4.22738"/>
<feGaussianBlur stdDeviation="2.41565"/>
<feComposite in2="hardAlpha" operator="arithmetic" k2="-1" k3="1"/>
<feColorMatrix type="matrix" values="0 0 0 0 0 0 0 0 0 0 0 0 0 0 0 0 0 0 0.25 0"/>
<feBlend mode="normal" in2="shape" result="effect2_innerShadow_5_1139"/>
<feColorMatrix in="SourceAlpha" type="matrix" values="0 0 0 0 0 0 0 0 0 0 0 0 0 0 0 0 0 0 127 0" result="hardAlpha"/>
<feOffset dx="1.81174" dy="2.41565"/>
<feGaussianBlur stdDeviation="1.20782"/>
<feComposite in2="hardAlpha" operator="arithmetic" k2="-1" k3="1"/>
<feColorMatrix type="matrix" values="0 0 0 0 1 0 0 0 0 1 0 0 0 0 1 0 0 0 0.61 0"/>
<feBlend mode="normal" in2="effect2_innerShadow_5_1139" result="effect3_innerShadow_5_1139"/>
<feColorMatrix in="SourceAlpha" type="matrix" values="0 0 0 0 0 0 0 0 0 0 0 0 0 0 0 0 0 0 127 0" result="hardAlpha"/>
<feOffset dy="-3.01956"/>
<feGaussianBlur stdDeviation="1.20782"/>
<feComposite in2="hardAlpha" operator="arithmetic" k2="-1" k3="1"/>
<feColorMatrix type="matrix" values="0 0 0 0 0.216667 0 0 0 0 0.216667 0 0 0 0 0.216667 0 0 0 1 0"/>
<feBlend mode="normal" in2="effect3_innerShadow_5_1139" result="effect4_innerShadow_5_1139"/>
</filter>
<filter id="filter1_i_5_1139" x="49.9138" y="19.832" width="17.317" height="18.3485" filterUnits="userSpaceOnUse" color-interpolation-filters="sRGB">
<feFlood flood-opacity="0" result="BackgroundImageFix"/>
<feBlend mode="normal" in="SourceGraphic" in2="BackgroundImageFix" result="shape"/>
<feColorMatrix in="SourceAlpha" type="matrix" values="0 0 0 0 0 0 0 0 0 0 0 0 0 0 0 0 0 0 127 0" result="hardAlpha"/>
<feOffset dy="0.603912"/>
<feGaussianBlur stdDeviation="1.20782"/>
<feComposite in2="hardAlpha" operator="arithmetic" k2="-1" k3="1"/>
<feColorMatrix type="matrix" values="0 0 0 0 0 0 0 0 0 0 0 0 0 0 0 0 0 0 0.25 0"/>
<feBlend mode="normal" in2="shape" result="effect1_innerShadow_5_1139"/>
</filter>
<filter id="filter2_i_5_1139" x="21.3917" y="56.365" width="42.7833" height="44.4436" filterUnits="userSpaceOnUse" color-interpolation-filters="sRGB">
<feFlood flood-opacity="0" result="BackgroundImageFix"/>
<feBlend mode="normal" in="SourceGraphic" in2="BackgroundImageFix" result="shape"/>
<feColorMatrix in="SourceAlpha" type="matrix" values="0 0 0 0 0 0 0 0 0 0 0 0 0 0 0 0 0 0 127 0" result="hardAlpha"/>
<feOffset dy="0.603912"/>
<feGaussianBlur stdDeviation="1.20782"/>
<feComposite in2="hardAlpha" operator="arithmetic" k2="-1" k3="1"/>
<feColorMatrix type="matrix" values="0 0 0 0 0 0 0 0 0 0 0 0 0 0 0 0 0 0 0.25 0"/>
<feBlend mode="normal" in2="shape" result="effect1_innerShadow_5_1139"/>
</filter>
<filter id="filter3_i_5_1139" x="82.5105" y="60.5402" width="26.4848" height="27.7427" filterUnits="userSpaceOnUse" color-interpolation-filters="sRGB">
<feFlood flood-opacity="0" result="BackgroundImageFix"/>
<feBlend mode="normal" in="SourceGraphic" in2="BackgroundImageFix" result="shape"/>
<feColorMatrix in="SourceAlpha" type="matrix" values="0 0 0 0 0 0 0 0 0 0 0 0 0 0 0 0 0 0 127 0" result="hardAlpha"/>
<feOffset dy="0.603912"/>
<feGaussianBlur stdDeviation="1.20782"/>
<feComposite in2="hardAlpha" operator="arithmetic" k2="-1" k3="1"/>
<feColorMatrix type="matrix" values="0 0 0 0 0 0 0 0 0 0 0 0 0 0 0 0 0 0 0.25 0"/>
<feBlend mode="normal" in2="shape" result="effect1_innerShadow_5_1139"/>
</filter>
</defs>
</svg>
