<svg width="265" height="207" viewBox="0 0 265 207" fill="none" xmlns="http://www.w3.org/2000/svg">
<g filter="url(#filter0_diii_8_297)">
<path d="M65.1934 126.3C98.9484 126.3 126.312 98.2601 126.312 63.6716C126.312 29.0832 98.9484 1.04378 65.1934 1.04378C31.4385 1.04378 4.07468 29.0832 4.07468 63.6716C4.07468 98.2601 31.4385 126.3 65.1934 126.3Z" fill="#C4C9D2"/>
</g>
<g filter="url(#filter1_i_8_297)">
<path d="M58.5723 37.5766C63.3542 37.5766 67.2308 33.6044 67.2308 28.7043C67.2308 23.8043 63.3542 19.832 58.5723 19.832C53.7903 19.832 49.9138 23.8043 49.9138 28.7043C49.9138 33.6044 53.7903 37.5766 58.5723 37.5766Z" fill="#9DA5B5"/>
</g>
<g filter="url(#filter2_i_8_297)">
<path d="M42.7833 100.205C54.5976 100.205 64.175 90.3909 64.175 78.2849C64.175 66.1789 54.5976 56.365 42.7833 56.365C30.969 56.365 21.3917 66.1789 21.3917 78.2849C21.3917 90.3909 30.969 100.205 42.7833 100.205Z" fill="#9DA5B5"/>
</g>
<g filter="url(#filter3_i_8_297)">
<path d="M95.7529 87.679C103.066 87.679 108.995 81.6038 108.995 74.1096C108.995 66.6154 103.066 60.5402 95.7529 60.5402C88.4393 60.5402 82.5105 66.6154 82.5105 74.1096C82.5105 81.6038 88.4393 87.679 95.7529 87.679Z" fill="#9DA5B5"/>
</g>
<path d="M163 48C177.501 48 189.943 56.8192 195.254 69.3867C198.861 67.8502 202.831 67 207 67C223.569 67 237 80.4315 237 97C237 113.569 223.569 127 207 127H124C123.41 127 122.831 126.956 122.264 126.874C106.978 125.492 95 112.646 95 97C95 80.4315 108.431 67 125 67C127.235 67 129.412 67.2465 131.508 67.71C137.183 56.0418 149.153 48 163 48Z" fill="white"/>
<path d="M208.493 86C196.443 86 186.105 92.5863 181.691 101.972C178.694 100.824 175.394 100.189 171.93 100.189C158.162 100.189 147 110.221 147 122.595C147 134.261 156.922 143.844 169.596 144.901C170.028 144.965 170.47 145 170.92 145H241.911C242.733 145 243.527 144.887 244.283 144.68C256.045 142.88 265 133.678 265 122.595C265 110.221 253.838 100.189 240.07 100.189C238.213 100.189 236.403 100.374 234.662 100.72C229.946 92.0059 220 86.0001 208.493 86Z" fill="#DFDFDF"/>
<path d="M127.465 96C139.719 96 150.233 102.81 154.721 112.514C157.769 111.327 161.125 110.671 164.647 110.671C178.649 110.671 190 121.042 190 133.835C190 146.006 179.727 155.984 166.671 156.926C166.295 156.972 165.911 157 165.522 157H93.6318C92.8294 157 92.0511 156.897 91.3086 156.705C79.229 154.936 70 145.371 70 133.835C70.0003 121.042 81.3511 110.671 95.3525 110.671C97.241 110.671 99.0809 110.861 100.852 111.219C105.648 102.209 115.763 96 127.465 96Z" fill="#CCCCCC"/>
<path d="M120.092 166.795C120.378 165.915 121.622 165.915 121.908 166.795V166.795C122.036 167.189 122.403 167.455 122.816 167.455V167.455C123.741 167.455 124.126 168.639 123.378 169.182V169.182C123.043 169.426 122.903 169.857 123.031 170.25V170.25C123.317 171.13 122.31 171.861 121.561 171.318V171.318C121.227 171.074 120.773 171.074 120.439 171.318V171.318C119.69 171.861 118.683 171.13 118.969 170.25V170.25C119.097 169.857 118.957 169.426 118.622 169.182V169.182C117.874 168.639 118.259 167.455 119.184 167.455V167.455C119.597 167.455 119.964 167.189 120.092 166.795V166.795Z" fill="white"/>
<path d="M157.092 164.795C157.378 163.915 158.622 163.915 158.908 164.795V164.795C159.036 165.189 159.403 165.455 159.816 165.455V165.455C160.741 165.455 161.126 166.639 160.378 167.182V167.182C160.043 167.426 159.903 167.857 160.031 168.25V168.25C160.317 169.13 159.31 169.861 158.561 169.318V169.318C158.227 169.074 157.773 169.074 157.439 169.318V169.318C156.69 169.861 155.683 169.13 155.969 168.25V168.25C156.097 167.857 155.957 167.426 155.622 167.182V167.182C154.874 166.639 155.259 165.455 156.184 165.455V165.455C156.597 165.455 156.964 165.189 157.092 164.795V164.795Z" fill="white"/>
<path d="M113.092 193.795C113.378 192.915 114.622 192.915 114.908 193.795V193.795C115.036 194.189 115.403 194.455 115.816 194.455V194.455C116.741 194.455 117.126 195.639 116.378 196.182V196.182C116.043 196.426 115.903 196.857 116.031 197.25V197.25C116.317 198.13 115.31 198.861 114.561 198.318V198.318C114.227 198.074 113.773 198.074 113.439 198.318V198.318C112.69 198.861 111.683 198.13 111.969 197.25V197.25C112.097 196.857 111.957 196.426 111.622 196.182V196.182C110.874 195.639 111.259 194.455 112.184 194.455V194.455C112.597 194.455 112.964 194.189 113.092 193.795V193.795Z" fill="white"/>
<path d="M154.092 201.795C154.378 200.915 155.622 200.915 155.908 201.795V201.795C156.036 202.189 156.403 202.455 156.816 202.455V202.455C157.741 202.455 158.126 203.639 157.378 204.182V204.182C157.043 204.426 156.903 204.857 157.031 205.25V205.25C157.317 206.13 156.31 206.861 155.561 206.318V206.318C155.227 206.074 154.773 206.074 154.439 206.318V206.318C153.69 206.861 152.683 206.13 152.969 205.25V205.25C153.097 204.857 152.957 204.426 152.622 204.182V204.182C151.874 203.639 152.259 202.455 153.184 202.455V202.455C153.597 202.455 153.964 202.189 154.092 201.795V201.795Z" fill="white"/>
<path d="M194.092 196.795C194.378 195.915 195.622 195.915 195.908 196.795V196.795C196.036 197.189 196.403 197.455 196.816 197.455V197.455C197.741 197.455 198.126 198.639 197.378 199.182V199.182C197.043 199.426 196.903 199.857 197.031 200.25V200.25C197.317 201.13 196.31 201.861 195.561 201.318V201.318C195.227 201.074 194.773 201.074 194.439 201.318V201.318C193.69 201.861 192.683 201.13 192.969 200.25V200.25C193.097 199.857 192.957 199.426 192.622 199.182V199.182C191.874 198.639 192.259 197.455 193.184 197.455V197.455C193.597 197.455 193.964 197.189 194.092 196.795V196.795Z" fill="white"/>
<path d="M139.092 188.795C139.378 187.915 140.622 187.915 140.908 188.795V188.795C141.036 189.189 141.403 189.455 141.816 189.455V189.455C142.741 189.455 143.126 190.639 142.378 191.182V191.182C142.043 191.426 141.903 191.857 142.031 192.25V192.25C142.317 193.13 141.31 193.861 140.561 193.318V193.318C140.227 193.074 139.773 193.074 139.439 193.318V193.318C138.69 193.861 137.683 193.13 137.969 192.25V192.25C138.097 191.857 137.957 191.426 137.622 191.182V191.182C136.874 190.639 137.259 189.455 138.184 189.455V189.455C138.597 189.455 138.964 189.189 139.092 188.795V188.795Z" fill="white"/>
<path d="M175.092 179.795C175.378 178.915 176.622 178.915 176.908 179.795V179.795C177.036 180.189 177.403 180.455 177.816 180.455V180.455C178.741 180.455 179.126 181.639 178.378 182.182V182.182C178.043 182.426 177.903 182.857 178.031 183.25V183.25C178.317 184.13 177.31 184.861 176.561 184.318V184.318C176.227 184.074 175.773 184.074 175.439 184.318V184.318C174.69 184.861 173.683 184.13 173.969 183.25V183.25C174.097 182.857 173.957 182.426 173.622 182.182V182.182C172.874 181.639 173.259 180.455 174.184 180.455V180.455C174.597 180.455 174.964 180.189 175.092 179.795V179.795Z" fill="white"/>
<path d="M232.092 196.795C232.378 195.915 233.622 195.915 233.908 196.795V196.795C234.036 197.189 234.403 197.455 234.816 197.455V197.455C235.741 197.455 236.126 198.639 235.378 199.182V199.182C235.043 199.426 234.903 199.857 235.031 200.25V200.25C235.317 201.13 234.31 201.861 233.561 201.318V201.318C233.227 201.074 232.773 201.074 232.439 201.318V201.318C231.69 201.861 230.683 201.13 230.969 200.25V200.25C231.097 199.857 230.957 199.426 230.622 199.182V199.182C229.874 198.639 230.259 197.455 231.184 197.455V197.455C231.597 197.455 231.964 197.189 232.092 196.795V196.795Z" fill="white"/>
<path d="M209.092 183.795C209.378 182.915 210.622 182.915 210.908 183.795V183.795C211.036 184.189 211.403 184.455 211.816 184.455V184.455C212.741 184.455 213.126 185.639 212.378 186.182V186.182C212.043 186.426 211.903 186.857 212.031 187.25V187.25C212.317 188.13 211.31 188.861 210.561 188.318V188.318C210.227 188.074 209.773 188.074 209.439 188.318V188.318C208.69 188.861 207.683 188.13 207.969 187.25V187.25C208.097 186.857 207.957 186.426 207.622 186.182V186.182C206.874 185.639 207.259 184.455 208.184 184.455V184.455C208.597 184.455 208.964 184.189 209.092 183.795V183.795Z" fill="white"/>
<path d="M238.092 169.795C238.378 168.915 239.622 168.915 239.908 169.795V169.795C240.036 170.189 240.403 170.455 240.816 170.455V170.455C241.741 170.455 242.126 171.639 241.378 172.182V172.182C241.043 172.426 240.903 172.857 241.031 173.25V173.25C241.317 174.13 240.31 174.861 239.561 174.318V174.318C239.227 174.074 238.773 174.074 238.439 174.318V174.318C237.69 174.861 236.683 174.13 236.969 173.25V173.25C237.097 172.857 236.957 172.426 236.622 172.182V172.182C235.874 171.639 236.259 170.455 237.184 170.455V170.455C237.597 170.455 237.964 170.189 238.092 169.795V169.795Z" fill="white"/>
<path d="M222.092 159.795C222.378 158.915 223.622 158.915 223.908 159.795V159.795C224.036 160.189 224.403 160.455 224.816 160.455V160.455C225.741 160.455 226.126 161.639 225.378 162.182V162.182C225.043 162.426 224.903 162.857 225.031 163.25V163.25C225.317 164.13 224.31 164.861 223.561 164.318V164.318C223.227 164.074 222.773 164.074 222.439 164.318V164.318C221.69 164.861 220.683 164.13 220.969 163.25V163.25C221.097 162.857 220.957 162.426 220.622 162.182V162.182C219.874 161.639 220.259 160.455 221.184 160.455V160.455C221.597 160.455 221.964 160.189 222.092 159.795V159.795Z" fill="white"/>
<path d="M192.092 161.795C192.378 160.915 193.622 160.915 193.908 161.795V161.795C194.036 162.189 194.403 162.455 194.816 162.455V162.455C195.741 162.455 196.126 163.639 195.378 164.182V164.182C195.043 164.426 194.903 164.857 195.031 165.25V165.25C195.317 166.13 194.31 166.861 193.561 166.318V166.318C193.227 166.074 192.773 166.074 192.439 166.318V166.318C191.69 166.861 190.683 166.13 190.969 165.25V165.25C191.097 164.857 190.957 164.426 190.622 164.182V164.182C189.874 163.639 190.259 162.455 191.184 162.455V162.455C191.597 162.455 191.964 162.189 192.092 161.795V161.795Z" fill="white"/>
<path d="M233.686 36.5517C234.361 37.2474 233.751 38.3993 232.796 38.2327L230.818 37.8874C230.391 37.8129 229.965 38.0217 229.762 38.4046L228.823 40.1793C228.369 41.0354 227.085 40.8113 226.949 39.8522L226.666 37.8641C226.605 37.4352 226.275 37.0944 225.848 37.0199L223.87 36.6747C222.915 36.5081 222.732 35.2177 223.602 34.7915L225.405 33.9081C225.794 33.7175 226.016 33.2981 225.955 32.8692L225.672 30.8811C225.536 29.922 226.706 29.3486 227.38 30.0443L228.778 31.4864C229.079 31.7975 229.547 31.8791 229.936 31.6885L231.739 30.8051C232.609 30.3789 233.516 31.315 233.063 32.1711L232.123 33.9458C231.921 34.3286 231.987 34.7985 232.289 35.1096L233.686 36.5517Z" fill="#FFDD00"/>
<path d="M184.196 10.3469C184.87 11.0426 184.26 12.1945 183.306 12.028L181.328 11.6827C180.901 11.6082 180.475 11.817 180.272 12.1998L179.332 13.9745C178.879 14.8307 177.595 14.6065 177.458 13.6475L177.176 11.6594C177.115 11.2305 176.784 10.8897 176.357 10.8152L174.379 10.4699C173.425 10.3033 173.241 9.01292 174.111 8.58675L175.915 7.70333C176.304 7.51274 176.526 7.09331 176.465 6.66441L176.182 4.67632C176.045 3.71726 177.216 3.14386 177.89 3.83953L179.287 5.28163C179.589 5.59275 180.056 5.67435 180.445 5.48376L182.249 4.60034C183.119 4.17417 184.026 5.1102 183.573 5.96631L182.633 7.741C182.43 8.12387 182.497 8.59373 182.798 8.90485L184.196 10.3469Z" fill="#FFDD00"/>
<path d="M196.255 49.5463C196.929 50.242 196.319 51.3939 195.365 51.2273L193.386 50.882C192.96 50.8075 192.533 51.0163 192.331 51.3992L191.391 53.1739C190.938 54.03 189.654 53.8059 189.517 52.8468L189.234 50.8587C189.173 50.4298 188.843 50.089 188.416 50.0145L186.438 49.6692C185.484 49.5027 185.3 48.2123 186.17 47.7861L187.973 46.9027C188.362 46.7121 188.584 46.2927 188.523 45.8638L188.24 43.8757C188.104 42.9166 189.275 42.3432 189.949 43.0389L191.346 44.481C191.648 44.7921 192.115 44.8737 192.504 44.6831L194.308 43.7997C195.177 43.3735 196.085 44.3095 195.631 45.1657L194.692 46.9404C194.489 47.3232 194.556 47.7931 194.857 48.1042L196.255 49.5463Z" fill="#FFDD00"/>
<path d="M152.742 35.559C153.416 36.2547 152.806 37.4066 151.852 37.24L149.874 36.8947C149.447 36.8202 149.021 37.029 148.818 37.4119L147.878 39.1866C147.425 40.0427 146.141 39.8186 146.004 38.8595L145.722 36.8714C145.661 36.4425 145.33 36.1017 144.903 36.0272L142.925 35.6819C141.971 35.5154 141.787 34.2249 142.657 33.7988L144.461 32.9154C144.85 32.7248 145.072 32.3053 145.011 31.8764L144.728 29.8883C144.591 28.9293 145.762 28.3559 146.436 29.0516L147.833 30.4937C148.135 30.8048 148.602 30.8864 148.991 30.6958L150.795 29.8124C151.665 29.3862 152.572 30.3222 152.119 31.1783L151.179 32.953C150.976 33.3359 151.043 33.8058 151.344 34.1169L152.742 35.559Z" fill="#FFDD00"/>
<defs>
<filter id="filter0_diii_8_297" x="1.65904" y="-1.37186" width="127.069" height="132.503" filterUnits="userSpaceOnUse" color-interpolation-filters="sRGB">
<feFlood flood-opacity="0" result="BackgroundImageFix"/>
<feColorMatrix in="SourceAlpha" type="matrix" values="0 0 0 0 0 0 0 0 0 0 0 0 0 0 0 0 0 0 127 0" result="hardAlpha"/>
<feOffset dy="2.41565"/>
<feGaussianBlur stdDeviation="1.20782"/>
<feComposite in2="hardAlpha" operator="out"/>
<feColorMatrix type="matrix" values="0 0 0 0 0 0 0 0 0 0 0 0 0 0 0 0 0 0 0.25 0"/>
<feBlend mode="normal" in2="BackgroundImageFix" result="effect1_dropShadow_8_297"/>
<feBlend mode="normal" in="SourceGraphic" in2="effect1_dropShadow_8_297" result="shape"/>
<feColorMatrix in="SourceAlpha" type="matrix" values="0 0 0 0 0 0 0 0 0 0 0 0 0 0 0 0 0 0 127 0" result="hardAlpha"/>
<feOffset dx="2.41565" dy="4.22738"/>
<feGaussianBlur stdDeviation="2.41565"/>
<feComposite in2="hardAlpha" operator="arithmetic" k2="-1" k3="1"/>
<feColorMatrix type="matrix" values="0 0 0 0 0 0 0 0 0 0 0 0 0 0 0 0 0 0 0.25 0"/>
<feBlend mode="normal" in2="shape" result="effect2_innerShadow_8_297"/>
<feColorMatrix in="SourceAlpha" type="matrix" values="0 0 0 0 0 0 0 0 0 0 0 0 0 0 0 0 0 0 127 0" result="hardAlpha"/>
<feOffset dx="1.81174" dy="2.41565"/>
<feGaussianBlur stdDeviation="1.20782"/>
<feComposite in2="hardAlpha" operator="arithmetic" k2="-1" k3="1"/>
<feColorMatrix type="matrix" values="0 0 0 0 1 0 0 0 0 1 0 0 0 0 1 0 0 0 0.61 0"/>
<feBlend mode="normal" in2="effect2_innerShadow_8_297" result="effect3_innerShadow_8_297"/>
<feColorMatrix in="SourceAlpha" type="matrix" values="0 0 0 0 0 0 0 0 0 0 0 0 0 0 0 0 0 0 127 0" result="hardAlpha"/>
<feOffset dy="-3.01956"/>
<feGaussianBlur stdDeviation="1.20782"/>
<feComposite in2="hardAlpha" operator="arithmetic" k2="-1" k3="1"/>
<feColorMatrix type="matrix" values="0 0 0 0 0.216667 0 0 0 0 0.216667 0 0 0 0 0.216667 0 0 0 1 0"/>
<feBlend mode="normal" in2="effect3_innerShadow_8_297" result="effect4_innerShadow_8_297"/>
</filter>
<filter id="filter1_i_8_297" x="49.9138" y="19.832" width="17.317" height="18.3485" filterUnits="userSpaceOnUse" color-interpolation-filters="sRGB">
<feFlood flood-opacity="0" result="BackgroundImageFix"/>
<feBlend mode="normal" in="SourceGraphic" in2="BackgroundImageFix" result="shape"/>
<feColorMatrix in="SourceAlpha" type="matrix" values="0 0 0 0 0 0 0 0 0 0 0 0 0 0 0 0 0 0 127 0" result="hardAlpha"/>
<feOffset dy="0.603912"/>
<feGaussianBlur stdDeviation="1.20782"/>
<feComposite in2="hardAlpha" operator="arithmetic" k2="-1" k3="1"/>
<feColorMatrix type="matrix" values="0 0 0 0 0 0 0 0 0 0 0 0 0 0 0 0 0 0 0.25 0"/>
<feBlend mode="normal" in2="shape" result="effect1_innerShadow_8_297"/>
</filter>
<filter id="filter2_i_8_297" x="21.3917" y="56.365" width="42.7833" height="44.4436" filterUnits="userSpaceOnUse" color-interpolation-filters="sRGB">
<feFlood flood-opacity="0" result="BackgroundImageFix"/>
<feBlend mode="normal" in="SourceGraphic" in2="BackgroundImageFix" result="shape"/>
<feColorMatrix in="SourceAlpha" type="matrix" values="0 0 0 0 0 0 0 0 0 0 0 0 0 0 0 0 0 0 127 0" result="hardAlpha"/>
<feOffset dy="0.603912"/>
<feGaussianBlur stdDeviation="1.20782"/>
<feComposite in2="hardAlpha" operator="arithmetic" k2="-1" k3="1"/>
<feColorMatrix type="matrix" values="0 0 0 0 0 0 0 0 0 0 0 0 0 0 0 0 0 0 0.25 0"/>
<feBlend mode="normal" in2="shape" result="effect1_innerShadow_8_297"/>
</filter>
<filter id="filter3_i_8_297" x="82.5105" y="60.5402" width="26.4848" height="27.7427" filterUnits="userSpaceOnUse" color-interpolation-filters="sRGB">
<feFlood flood-opacity="0" result="BackgroundImageFix"/>
<feBlend mode="normal" in="SourceGraphic" in2="BackgroundImageFix" result="shape"/>
<feColorMatrix in="SourceAlpha" type="matrix" values="0 0 0 0 0 0 0 0 0 0 0 0 0 0 0 0 0 0 127 0" result="hardAlpha"/>
<feOffset dy="0.603912"/>
<feGaussianBlur stdDeviation="1.20782"/>
<feComposite in2="hardAlpha" operator="arithmetic" k2="-1" k3="1"/>
<feColorMatrix type="matrix" values="0 0 0 0 0 0 0 0 0 0 0 0 0 0 0 0 0 0 0.25 0"/>
<feBlend mode="normal" in2="shape" result="effect1_innerShadow_8_297"/>
</filter>
</defs>
</svg>
