<svg width="259" height="219" viewBox="0 0 259 219" fill="none" xmlns="http://www.w3.org/2000/svg">
<g filter="url(#filter0_diii_8_118)">
<path d="M65.1934 128.767C98.9484 128.767 126.312 100.728 126.312 66.1396C126.312 31.5511 98.9484 3.5117 65.1934 3.5117C31.4385 3.5117 4.07468 31.5511 4.07468 66.1396C4.07468 100.728 31.4385 128.767 65.1934 128.767Z" fill="#C4C9D2"/>
</g>
<g filter="url(#filter1_i_8_118)">
<path d="M58.5723 40.0445C63.3542 40.0445 67.2308 36.0723 67.2308 31.1722C67.2308 26.2722 63.3542 22.3 58.5723 22.3C53.7903 22.3 49.9138 26.2722 49.9138 31.1722C49.9138 36.0723 53.7903 40.0445 58.5723 40.0445Z" fill="#9DA5B5"/>
</g>
<g filter="url(#filter2_i_8_118)">
<path d="M42.7833 102.673C54.5976 102.673 64.175 92.8588 64.175 80.7528C64.175 68.6468 54.5976 58.833 42.7833 58.833C30.969 58.833 21.3917 68.6468 21.3917 80.7528C21.3917 92.8588 30.969 102.673 42.7833 102.673Z" fill="#9DA5B5"/>
</g>
<g filter="url(#filter3_i_8_118)">
<path d="M95.7529 90.1469C103.066 90.1469 108.995 84.0717 108.995 76.5775C108.995 69.0834 103.066 63.0081 95.7529 63.0081C88.4393 63.0081 82.5105 69.0834 82.5105 76.5775C82.5105 84.0717 88.4393 90.1469 95.7529 90.1469Z" fill="#9DA5B5"/>
</g>
<path d="M157 51.4679C171.501 51.4679 183.943 60.2871 189.254 72.8546C192.861 71.3181 196.831 70.4679 201 70.4679C217.569 70.4679 231 83.8994 231 100.468C231 117.036 217.569 130.468 201 130.468H118C117.41 130.468 116.831 130.424 116.264 130.342C100.978 128.96 89 116.114 89 100.468C89 83.8994 102.431 70.4679 119 70.4679C121.235 70.4679 123.412 70.7144 125.508 71.1779C131.183 59.5098 143.153 51.4679 157 51.4679Z" fill="white"/>
<path d="M202.493 89.4679C190.443 89.4679 180.105 96.0542 175.691 105.44C172.694 104.292 169.394 103.657 165.93 103.657C152.162 103.657 141 113.689 141 126.063C141 137.729 150.922 147.312 163.596 148.369C164.028 148.433 164.47 148.468 164.92 148.468H235.911C236.733 148.468 237.527 148.355 238.283 148.148C250.045 146.348 259 137.146 259 126.063C259 113.689 247.838 103.657 234.07 103.657C232.213 103.657 230.403 103.841 228.662 104.188C223.946 95.4738 214 89.468 202.493 89.4679Z" fill="#DFDFDF"/>
<path d="M121.465 99.4679C133.719 99.4679 144.233 106.278 148.721 115.982C151.769 114.795 155.125 114.139 158.647 114.139C172.649 114.139 184 124.51 184 137.303C184 149.474 173.727 159.452 160.671 160.394C160.295 160.44 159.911 160.468 159.522 160.468H87.6318C86.8294 160.468 86.0511 160.365 85.3086 160.173C73.229 158.404 64 148.839 64 137.303C64.0003 124.51 75.3511 114.139 89.3525 114.139C91.241 114.139 93.0809 114.329 94.8516 114.687C99.6479 105.677 109.763 99.4679 121.465 99.4679Z" fill="#CCCCCC"/>
<path d="M211.639 158.686L220.716 166.724C221.607 167.512 222.311 168.537 222.715 169.747C223.94 173.413 221.96 177.379 218.293 178.604C214.627 179.829 210.661 177.849 209.436 174.183C209.032 172.973 208.978 171.731 209.217 170.566L209.216 170.566L211.639 158.686Z" fill="#00B2FF"/>
<path d="M115.639 162.686L124.716 170.724C125.607 171.512 126.311 172.537 126.715 173.747C127.94 177.413 125.96 181.379 122.293 182.604C118.627 183.829 114.661 181.849 113.436 178.183C113.032 176.973 112.978 175.731 113.217 174.566L113.216 174.566L115.639 162.686Z" fill="#00B2FF"/>
<path d="M198.639 190.686L207.716 198.724C208.607 199.512 209.311 200.537 209.715 201.747C210.94 205.413 208.96 209.379 205.293 210.604C201.627 211.829 197.661 209.849 196.436 206.183C196.032 204.973 195.978 203.731 196.217 202.566L196.216 202.566L198.639 190.686Z" fill="#00B2FF"/>
<path d="M143.639 192.686L152.716 200.724C153.607 201.512 154.311 202.537 154.715 203.747C155.94 207.413 153.96 211.379 150.293 212.604C146.627 213.829 142.661 211.849 141.436 208.183C141.032 206.973 140.978 205.731 141.217 204.566L141.216 204.566L143.639 192.686Z" fill="#00B2FF"/>
<path d="M166.188 141.813C165.534 141.065 164.308 141.626 164.446 142.61L169.101 175.626L157.502 182.285C156.939 182.608 156.829 183.373 157.276 183.843L190.005 218.192C190.726 218.949 191.979 218.23 191.689 217.225L181.623 182.351L194.725 176.347C195.334 176.068 195.502 175.283 195.061 174.779L166.188 141.813Z" fill="#FFDD00"/>
<path d="M225.686 33.0196C226.361 33.7153 225.751 34.8672 224.796 34.7006L222.818 34.3553C222.391 34.2809 221.965 34.4896 221.762 34.8725L220.823 36.6472C220.369 37.5033 219.085 37.2792 218.949 36.3201L218.666 34.3321C218.605 33.9032 218.275 33.5623 217.848 33.4878L215.87 33.1426C214.915 32.976 214.732 31.6856 215.602 31.2594L217.405 30.376C217.794 30.1854 218.016 29.766 217.955 29.3371L217.672 27.349C217.536 26.3899 218.706 25.8165 219.38 26.5122L220.778 27.9543C221.079 28.2654 221.547 28.347 221.936 28.1564L223.739 27.273C224.609 26.8468 225.516 27.7829 225.063 28.639L224.123 30.4137C223.921 30.7965 223.987 31.2664 224.289 31.5775L225.686 33.0196Z" fill="#FFDD00"/>
<path d="M176.196 6.81487C176.87 7.51054 176.26 8.66244 175.306 8.49588L173.328 8.15059C172.901 8.0761 172.475 8.28489 172.272 8.66776L171.332 10.4425C170.879 11.2986 169.595 11.0745 169.458 10.1154L169.176 8.12731C169.115 7.6984 168.784 7.35758 168.357 7.28309L166.379 6.93781C165.425 6.77125 165.241 5.48084 166.111 5.05467L167.915 4.17125C168.304 3.98066 168.526 3.56123 168.465 3.13233L168.182 1.14424C168.045 0.185178 169.216 -0.388224 169.89 0.307451L171.287 1.74955C171.589 2.06066 172.056 2.14227 172.445 1.95168L174.249 1.06826C175.119 0.642089 176.026 1.57811 175.573 2.43423L174.633 4.20892C174.43 4.59179 174.497 5.06165 174.798 5.37277L176.196 6.81487Z" fill="#FFDD00"/>
<path d="M188.255 46.0142C188.929 46.7099 188.319 47.8618 187.365 47.6952L185.386 47.3499C184.96 47.2754 184.533 47.4842 184.331 47.8671L183.391 49.6418C182.938 50.4979 181.654 50.2738 181.517 49.3147L181.234 47.3267C181.173 46.8977 180.843 46.5569 180.416 46.4824L178.438 46.1372C177.484 45.9706 177.3 44.6802 178.17 44.254L179.973 43.3706C180.362 43.18 180.584 42.7606 180.523 42.3317L180.24 40.3436C180.104 39.3845 181.275 38.8111 181.949 39.5068L183.346 40.9489C183.648 41.26 184.115 41.3416 184.504 41.151L186.308 40.2676C187.177 39.8414 188.085 40.7775 187.631 41.6336L186.692 43.4083C186.489 43.7911 186.556 44.261 186.857 44.5721L188.255 46.0142Z" fill="#FFDD00"/>
<path d="M144.742 32.0269C145.416 32.7226 144.806 33.8745 143.852 33.7079L141.874 33.3626C141.447 33.2881 141.021 33.4969 140.818 33.8798L139.878 35.6545C139.425 36.5106 138.141 36.2865 138.004 35.3274L137.722 33.3393C137.661 32.9104 137.33 32.5696 136.903 32.4951L134.925 32.1498C133.971 31.9833 133.787 30.6929 134.657 30.2667L136.461 29.3833C136.85 29.1927 137.072 28.7732 137.011 28.3443L136.728 26.3563C136.591 25.3972 137.762 24.8238 138.436 25.5195L139.833 26.9616C140.135 27.2727 140.602 27.3543 140.991 27.1637L142.795 26.2803C143.665 25.8541 144.572 26.7901 144.119 27.6462L143.179 29.4209C142.976 29.8038 143.043 30.2737 143.344 30.5848L144.742 32.0269Z" fill="#FFDD00"/>
<defs>
<filter id="filter0_diii_8_118" x="1.65904" y="1.09606" width="127.069" height="132.503" filterUnits="userSpaceOnUse" color-interpolation-filters="sRGB">
<feFlood flood-opacity="0" result="BackgroundImageFix"/>
<feColorMatrix in="SourceAlpha" type="matrix" values="0 0 0 0 0 0 0 0 0 0 0 0 0 0 0 0 0 0 127 0" result="hardAlpha"/>
<feOffset dy="2.41565"/>
<feGaussianBlur stdDeviation="1.20782"/>
<feComposite in2="hardAlpha" operator="out"/>
<feColorMatrix type="matrix" values="0 0 0 0 0 0 0 0 0 0 0 0 0 0 0 0 0 0 0.25 0"/>
<feBlend mode="normal" in2="BackgroundImageFix" result="effect1_dropShadow_8_118"/>
<feBlend mode="normal" in="SourceGraphic" in2="effect1_dropShadow_8_118" result="shape"/>
<feColorMatrix in="SourceAlpha" type="matrix" values="0 0 0 0 0 0 0 0 0 0 0 0 0 0 0 0 0 0 127 0" result="hardAlpha"/>
<feOffset dx="2.41565" dy="4.22738"/>
<feGaussianBlur stdDeviation="2.41565"/>
<feComposite in2="hardAlpha" operator="arithmetic" k2="-1" k3="1"/>
<feColorMatrix type="matrix" values="0 0 0 0 0 0 0 0 0 0 0 0 0 0 0 0 0 0 0.25 0"/>
<feBlend mode="normal" in2="shape" result="effect2_innerShadow_8_118"/>
<feColorMatrix in="SourceAlpha" type="matrix" values="0 0 0 0 0 0 0 0 0 0 0 0 0 0 0 0 0 0 127 0" result="hardAlpha"/>
<feOffset dx="1.81174" dy="2.41565"/>
<feGaussianBlur stdDeviation="1.20782"/>
<feComposite in2="hardAlpha" operator="arithmetic" k2="-1" k3="1"/>
<feColorMatrix type="matrix" values="0 0 0 0 1 0 0 0 0 1 0 0 0 0 1 0 0 0 0.61 0"/>
<feBlend mode="normal" in2="effect2_innerShadow_8_118" result="effect3_innerShadow_8_118"/>
<feColorMatrix in="SourceAlpha" type="matrix" values="0 0 0 0 0 0 0 0 0 0 0 0 0 0 0 0 0 0 127 0" result="hardAlpha"/>
<feOffset dy="-3.01956"/>
<feGaussianBlur stdDeviation="1.20782"/>
<feComposite in2="hardAlpha" operator="arithmetic" k2="-1" k3="1"/>
<feColorMatrix type="matrix" values="0 0 0 0 0.216667 0 0 0 0 0.216667 0 0 0 0 0.216667 0 0 0 1 0"/>
<feBlend mode="normal" in2="effect3_innerShadow_8_118" result="effect4_innerShadow_8_118"/>
</filter>
<filter id="filter1_i_8_118" x="49.9138" y="22.3" width="17.317" height="18.3485" filterUnits="userSpaceOnUse" color-interpolation-filters="sRGB">
<feFlood flood-opacity="0" result="BackgroundImageFix"/>
<feBlend mode="normal" in="SourceGraphic" in2="BackgroundImageFix" result="shape"/>
<feColorMatrix in="SourceAlpha" type="matrix" values="0 0 0 0 0 0 0 0 0 0 0 0 0 0 0 0 0 0 127 0" result="hardAlpha"/>
<feOffset dy="0.603912"/>
<feGaussianBlur stdDeviation="1.20782"/>
<feComposite in2="hardAlpha" operator="arithmetic" k2="-1" k3="1"/>
<feColorMatrix type="matrix" values="0 0 0 0 0 0 0 0 0 0 0 0 0 0 0 0 0 0 0.25 0"/>
<feBlend mode="normal" in2="shape" result="effect1_innerShadow_8_118"/>
</filter>
<filter id="filter2_i_8_118" x="21.3917" y="58.833" width="42.7833" height="44.4436" filterUnits="userSpaceOnUse" color-interpolation-filters="sRGB">
<feFlood flood-opacity="0" result="BackgroundImageFix"/>
<feBlend mode="normal" in="SourceGraphic" in2="BackgroundImageFix" result="shape"/>
<feColorMatrix in="SourceAlpha" type="matrix" values="0 0 0 0 0 0 0 0 0 0 0 0 0 0 0 0 0 0 127 0" result="hardAlpha"/>
<feOffset dy="0.603912"/>
<feGaussianBlur stdDeviation="1.20782"/>
<feComposite in2="hardAlpha" operator="arithmetic" k2="-1" k3="1"/>
<feColorMatrix type="matrix" values="0 0 0 0 0 0 0 0 0 0 0 0 0 0 0 0 0 0 0.25 0"/>
<feBlend mode="normal" in2="shape" result="effect1_innerShadow_8_118"/>
</filter>
<filter id="filter3_i_8_118" x="82.5105" y="63.0081" width="26.4848" height="27.7427" filterUnits="userSpaceOnUse" color-interpolation-filters="sRGB">
<feFlood flood-opacity="0" result="BackgroundImageFix"/>
<feBlend mode="normal" in="SourceGraphic" in2="BackgroundImageFix" result="shape"/>
<feColorMatrix in="SourceAlpha" type="matrix" values="0 0 0 0 0 0 0 0 0 0 0 0 0 0 0 0 0 0 127 0" result="hardAlpha"/>
<feOffset dy="0.603912"/>
<feGaussianBlur stdDeviation="1.20782"/>
<feComposite in2="hardAlpha" operator="arithmetic" k2="-1" k3="1"/>
<feColorMatrix type="matrix" values="0 0 0 0 0 0 0 0 0 0 0 0 0 0 0 0 0 0 0.25 0"/>
<feBlend mode="normal" in2="shape" result="effect1_innerShadow_8_118"/>
</filter>
</defs>
</svg>
