<svg width="195" height="162" viewBox="0 0 195 162" fill="none" xmlns="http://www.w3.org/2000/svg">
<path d="M93 0C107.501 0 119.943 8.81921 125.254 21.3867C128.861 19.8502 132.831 19 137 19C153.569 19 167 32.4315 167 49C167 65.5685 153.569 79 137 79H54C53.4103 79 52.8306 78.9562 52.2637 78.874C36.9777 77.4917 25 64.646 25 49C25 32.4315 38.4315 19 55 19C57.2349 19 59.4123 19.2465 61.5078 19.71C67.1834 8.04184 79.1525 0 93 0Z" fill="white"/>
<path d="M138.493 38C126.443 38 116.105 44.5863 111.691 53.9717C108.694 52.824 105.394 52.1895 101.93 52.1895C88.1615 52.1895 77.0001 62.2209 77 74.5947C77 86.2613 86.9219 95.8438 99.5957 96.9014C100.028 96.9654 100.47 97 100.92 97H171.911C172.733 97 173.527 96.8866 174.283 96.6797C186.045 94.8805 195 85.6782 195 74.5947C195 62.2208 183.838 52.1895 170.07 52.1895C168.213 52.1895 166.403 52.3735 164.662 52.7197C159.946 44.0059 150 38.0001 138.493 38Z" fill="#DFDFDF"/>
<path d="M57.4648 48C69.7194 48 80.2326 54.8099 84.7207 64.5137C87.7694 63.3271 91.1246 62.671 94.6475 62.6709C108.649 62.6709 120 73.0418 120 85.835C120 98.0062 109.727 107.984 96.6709 108.926C96.2946 108.972 95.9113 109 95.5225 109H23.6318C22.8294 109 22.0511 108.897 21.3086 108.705C9.22905 106.936 0 97.3708 0 85.835C0.000286547 73.0418 11.3511 62.6709 25.3525 62.6709C27.241 62.6709 29.0809 62.8609 30.8516 63.2188C35.6479 54.2093 45.7628 48 57.4648 48Z" fill="#CCCCCC"/>
<path d="M97.6393 119.218L106.716 127.256C107.607 128.044 108.311 129.069 108.715 130.279C109.94 133.945 107.96 137.911 104.293 139.136C100.627 140.361 96.6611 138.381 95.4361 134.715C95.032 133.505 94.9783 132.263 95.2172 131.098L95.2163 131.098L97.6393 119.218Z" fill="#00B2FF"/>
<path d="M67.6393 113.218L76.7155 121.256C77.6071 122.044 78.3106 123.069 78.7147 124.279C79.9397 127.945 77.9602 131.911 74.2934 133.136C70.6266 134.361 66.6611 132.381 65.4361 128.715C65.032 127.505 64.9783 126.263 65.2172 125.098L65.2163 125.098L67.6393 113.218Z" fill="#00B2FF"/>
<path d="M118.639 101.218L127.716 109.256C128.607 110.044 129.311 111.069 129.715 112.279C130.94 115.945 128.96 119.911 125.293 121.136C121.627 122.361 117.661 120.381 116.436 116.715C116.032 115.505 115.978 114.263 116.217 113.098L116.216 113.098L118.639 101.218Z" fill="#00B2FF"/>
<path d="M82.6393 139.218L91.7155 147.256C92.6071 148.044 93.3106 149.069 93.7147 150.279C94.9397 153.945 92.9602 157.911 89.2934 159.136C85.6266 160.361 81.6611 158.381 80.4361 154.715C80.032 153.505 79.9783 152.263 80.2172 151.098L80.2163 151.098L82.6393 139.218Z" fill="#00B2FF"/>
<path d="M121.639 137.218L130.716 145.256C131.607 146.044 132.311 147.069 132.715 148.279C133.94 151.945 131.96 155.911 128.293 157.136C124.627 158.361 120.661 156.381 119.436 152.715C119.032 151.505 118.978 150.263 119.217 149.098L119.216 149.098L121.639 137.218Z" fill="#00B2FF"/>
</svg>
