<svg width="195" height="158" viewBox="0 0 195 158" fill="none" xmlns="http://www.w3.org/2000/svg">
<g clip-path="url(#clip0_3_145)">
<path d="M93 0C107.501 0 119.943 8.81921 125.254 21.3867C128.861 19.8502 132.831 19 137 19C153.569 19 167 32.4315 167 49C167 65.5685 153.569 79 137 79H54C53.4103 79 52.8306 78.9562 52.2637 78.874C36.9777 77.4917 25 64.646 25 49C25 32.4315 38.4315 19 55 19C57.2349 19 59.4123 19.2465 61.5078 19.71C67.1834 8.04184 79.1525 0 93 0Z" fill="white"/>
<path d="M138.493 38C126.443 38 116.105 44.5863 111.691 53.9717C108.694 52.824 105.394 52.1895 101.93 52.1895C88.1615 52.1895 77.0001 62.2209 77 74.5947C77 86.2613 86.9219 95.8438 99.5957 96.9014C100.028 96.9654 100.47 97 100.92 97H171.911C172.733 97 173.527 96.8866 174.283 96.6797C186.045 94.8805 195 85.6782 195 74.5947C195 62.2208 183.838 52.1895 170.07 52.1895C168.213 52.1895 166.403 52.3735 164.662 52.7197C159.946 44.0059 150 38.0001 138.493 38Z" fill="#DFDFDF"/>
<path d="M57.4648 48C69.7194 48 80.2326 54.8099 84.7207 64.5137C87.7694 63.3271 91.1246 62.671 94.6475 62.6709C108.649 62.6709 120 73.0418 120 85.835C120 98.0062 109.727 107.984 96.6709 108.926C96.2946 108.972 95.9113 109 95.5225 109H23.6318C22.8294 109 22.0511 108.897 21.3086 108.705C9.22905 106.936 0 97.3708 0 85.835C0.000286547 73.0418 11.3511 62.6709 25.3525 62.6709C27.241 62.6709 29.0809 62.8609 30.8516 63.2188C35.6479 54.2093 45.7628 48 57.4648 48Z" fill="#CCCCCC"/>
</g>
<circle cx="152.5" cy="113.5" r="2.5" fill="white"/>
<circle cx="105.5" cy="133.5" r="2.5" fill="white"/>
<circle cx="44.5" cy="146.5" r="2.5" fill="white"/>
<circle cx="168.5" cy="123.5" r="2.5" fill="white"/>
<circle cx="161.5" cy="150.5" r="2.5" fill="white"/>
<circle cx="123.5" cy="150.5" r="2.5" fill="white"/>
<circle cx="84.5" cy="155.5" r="2.5" fill="white"/>
<circle cx="138.5" cy="136.5" r="2.5" fill="white"/>
<circle cx="49.5" cy="120.5" r="2.5" fill="white"/>
<circle cx="121.5" cy="115.5" r="2.5" fill="white"/>
<circle cx="87.5" cy="118.5" r="2.5" fill="white"/>
<circle cx="68.5" cy="141.5" r="2.5" fill="white"/>
<defs>
<clipPath id="clip0_3_145">
<rect width="195" height="109" fill="white"/>
</clipPath>
</defs>
</svg>
