<svg width="195" height="168" viewBox="0 0 195 168" fill="none" xmlns="http://www.w3.org/2000/svg">
<path d="M93 0C107.501 0 119.943 8.81921 125.254 21.3867C128.861 19.8502 132.831 19 137 19C153.569 19 167 32.4315 167 49C167 65.5685 153.569 79 137 79H54C53.4103 79 52.8306 78.9562 52.2637 78.874C36.9777 77.4917 25 64.646 25 49C25 32.4315 38.4315 19 55 19C57.2349 19 59.4123 19.2465 61.5078 19.71C67.1834 8.04184 79.1525 0 93 0Z" fill="white"/>
<path d="M138.493 38C126.443 38 116.105 44.5863 111.691 53.9717C108.694 52.824 105.394 52.1895 101.93 52.1895C88.1615 52.1895 77.0001 62.2209 77 74.5947C77 86.2613 86.9219 95.8438 99.5957 96.9014C100.028 96.9654 100.47 97 100.92 97H171.911C172.733 97 173.527 96.8866 174.283 96.6797C186.045 94.8805 195 85.6782 195 74.5947C195 62.2208 183.838 52.1895 170.07 52.1895C168.213 52.1895 166.403 52.3735 164.662 52.7197C159.946 44.0059 150 38.0001 138.493 38Z" fill="#DFDFDF"/>
<path d="M57.4648 48C69.7194 48 80.2326 54.8099 84.7207 64.5137C87.7694 63.3271 91.1246 62.671 94.6475 62.6709C108.649 62.6709 120 73.0418 120 85.835C120 98.0062 109.727 107.984 96.6709 108.926C96.2946 108.972 95.9113 109 95.5225 109H23.6318C22.8294 109 22.0511 108.897 21.3086 108.705C9.22905 106.936 0 97.3708 0 85.835C0.000286547 73.0418 11.3511 62.6709 25.3525 62.6709C27.241 62.6709 29.0809 62.8609 30.8516 63.2188C35.6479 54.2093 45.7628 48 57.4648 48Z" fill="#CCCCCC"/>
<path d="M147.639 107.218L156.716 115.256C157.607 116.044 158.311 117.069 158.715 118.279C159.94 121.945 157.96 125.911 154.293 127.136C150.627 128.361 146.661 126.381 145.436 122.715C145.032 121.505 144.978 120.263 145.217 119.098L145.216 119.098L147.639 107.218Z" fill="#00B2FF"/>
<path d="M51.6393 111.218L60.7155 119.256C61.6071 120.044 62.3106 121.069 62.7147 122.279C63.9397 125.945 61.9602 129.911 58.2934 131.136C54.6266 132.361 50.6611 130.381 49.4361 126.715C49.032 125.505 48.9783 124.263 49.2172 123.098L49.2163 123.098L51.6393 111.218Z" fill="#00B2FF"/>
<path d="M134.639 139.218L143.716 147.256C144.607 148.044 145.311 149.069 145.715 150.279C146.94 153.945 144.96 157.911 141.293 159.136C137.627 160.361 133.661 158.381 132.436 154.715C132.032 153.505 131.978 152.263 132.217 151.098L132.216 151.098L134.639 139.218Z" fill="#00B2FF"/>
<path d="M79.6393 141.218L88.7155 149.256C89.6071 150.044 90.3106 151.069 90.7147 152.279C91.9397 155.945 89.9602 159.911 86.2934 161.136C82.6266 162.361 78.6611 160.381 77.4361 156.715C77.032 155.505 76.9783 154.263 77.2172 153.098L77.2163 153.098L79.6393 141.218Z" fill="#00B2FF"/>
<path d="M102.188 90.3445C101.533 89.5968 100.307 90.1591 100.446 91.1433L105.101 124.159L93.5017 130.818C92.9397 131.141 92.8289 131.905 93.2762 132.375L126.005 166.723C126.726 167.481 127.979 166.762 127.689 165.757L117.624 130.884L130.726 124.88C131.334 124.601 131.502 123.815 131.061 123.311L102.188 90.3445Z" fill="#FFDD00"/>
</svg>
